<svg id="a" xmlns="http://www.w3.org/2000/svg" viewBox="0 0 27.64 35.33"><defs><style>.b{fill-rule:evenodd;}</style></defs><path class="b" d="m3.92,35.33c-.43-.66-.83-1.41-1.2-2.24h2.6c.25.82.53,1.57.83,2.24h-2.23Zm-1.82-3.81h0C-.77,23.41-.82,10.03,2.71,2.23c-.22.49-.42,1.01-.62,1.56h2.77c-.1.4-.2.81-.29,1.22H1.7c-.15.51-.3,1.04-.43,1.58h3c-1.2,6.75-1.14,15.42.03,22.11H1.26c.13.54.28,1.07.43,1.58h2.91c.09.42.19.84.29,1.24h-2.79ZM2.72,2.21h0C3.08,1.41,3.48.67,3.92,0h2.23c-.3.68-.58,1.42-.83,2.21h-2.6ZM6.51,0h0c-.31.67-.59,1.42-.85,2.21h4.6c.1-.79.22-1.53.34-2.21h-4.09Zm3.57,3.79h0c-.04.4-.08.81-.12,1.22h-5.05c.09-.42.19-.83.29-1.22h4.87Zm-.25,2.8h-5.23c-1.21,6.73-1.15,15.44.03,22.11h5.22c-.48-6.69-.5-15.37-.01-22.11h0Zm.13,23.69h0c.04.43.08.84.12,1.24h-4.86c-.1-.4-.2-.82-.29-1.24h5.03Zm.3,2.82h-4.6c.26.82.54,1.57.84,2.24h4.09c-.12-.67-.24-1.42-.34-2.24h0ZM10.93,0h5.78c.13.67.24,1.42.34,2.21h-6.46c.1-.79.22-1.54.34-2.21h0Zm6.3,3.79h0c.04.4.08.81.12,1.22h-7.07c.04-.42.08-.83.12-1.22h6.83Zm.25,2.8h0c.49,6.74.47,15.44-.01,22.11h-7.3c-.48-6.68-.5-15.38-.01-22.11h7.32Zm-.13,23.69h0c-.04.43-.08.84-.12,1.24h-6.82c-.04-.4-.08-.82-.12-1.24h7.05Zm-.3,2.82h0c-.1.82-.22,1.57-.34,2.24h-5.78c-.12-.67-.24-1.42-.34-2.24h6.46Zm-.01-33.09h0c.12.68.24,1.42.34,2.21h4.6c-.26-.8-.54-1.54-.85-2.21h-4.09Zm5.4,3.79h0c.1.4.2.81.29,1.22h-5.05c-.04-.42-.08-.83-.12-1.22h4.87Zm.61,2.8h-5.23c.49,6.75.47,15.43-.01,22.11h5.22c1.18-6.67,1.24-15.38.03-22.11h0Zm-.33,23.69h0c-.09.43-.19.84-.29,1.24h-4.86c.04-.4.08-.82.12-1.24h5.04Zm-.73,2.82h-4.6c-.1.82-.22,1.57-.34,2.24h4.09c.31-.67.59-1.42.84-2.24h0Zm-.49-33.09h2.23c.44.67.84,1.41,1.2,2.21h-2.6c-.25-.79-.53-1.53-.83-2.21h0Zm3.78,3.02h0c3.19,7.89,3.05,20.66.27,28.5h-2.79c.1-.4.2-.82.29-1.24h2.91c.15-.51.3-1.04.43-1.58h-3.03c1.17-6.69,1.23-15.36.03-22.11h3.02c-.13-.54-.28-1.07-.43-1.58h-2.9c-.09-.42-.19-.83-.29-1.22h2.78c-.09-.26-.19-.52-.29-.77h0Zm-.35,30.07h0c-.37.83-.77,1.58-1.2,2.24h-2.23c.3-.67.57-1.42.83-2.24h2.6Z"/></svg>