<svg id="a" data-name="c" xmlns="http://www.w3.org/2000/svg" viewBox="0 0 18.48 35.52">
  <path class="b" d="m16.84,17.62c.05-1.23,1.31-.9,1.34-3.52.03-2.62-1.1-2.47-1.06-3.45.03-.71.05-1.32.07-1.8H1.29c.02.48.04,1.09.07,1.8.04.98-1.09.83-1.06,3.45.03,2.62,1.29,2.29,1.34,3.52.25,6.23.53,13.46.61,15.49h13.97c.08-2.04.37-9.26.61-15.49h0Z"/>
  <g>
    <g>
      <path class="b" d="m17.09,8.71H1.3c-.16,0-.29.13-.29.29s.13.29.29.29h15.79c.16,0,.29-.13.29-.29s-.13-.29-.29-.29Z"/>
      <rect class="b" x="2.26" y="32.92"/>
      <g>
        <path class="b" d="m17.27,7.58s-.08,0-.12-.03c-.15-.07-.21-.24-.15-.39.15-.34.23-.7.23-1.08,0-1.44-1.17-2.61-2.61-2.61-.11,0-.23,0-.35.02-.08,0-.17,0-.23-.07s-.1-.14-.1-.22v-.02c0-1.44-1.17-2.61-2.6-2.61-.89,0-1.71.45-2.19,1.19-.04.07-.11.12-.19.13s-.16,0-.23-.05c-.45-.33-.99-.51-1.55-.51-1.44,0-2.61,1.17-2.61,2.61v.21c0,.11-.04.21-.13.27s-.2.07-.3.02c-.27-.14-.56-.2-.87-.2-1.08,0-1.96.88-1.96,1.96,0,.31.07.61.21.89.07.14.02.32-.13.4-.14.07-.32.02-.4-.13-.18-.36-.28-.75-.28-1.16,0-1.4,1.14-2.55,2.55-2.55.24,0,.48.03.7.1.1-1.67,1.49-3,3.19-3,.59,0,1.15.16,1.65.46.64-.76,1.56-1.21,2.55-1.21,1.66,0,3.03,1.28,3.18,2.9h.1c1.76,0,3.2,1.43,3.2,3.2,0,.46-.1.9-.28,1.32-.05.11-.16.17-.27.17h-.01Z"/>
        <path class="b" d="m12.4,4.54c-.07,0-.14-.02-.19-.07-.12-.11-.14-.29-.03-.42.63-.73,1.53-1.14,2.49-1.14.37,0,.74.06,1.09.19.15.05.23.22.18.38-.05.15-.22.23-.38.18-.29-.1-.59-.15-.9-.15-.79,0-1.53.34-2.04.94-.06.07-.14.1-.22.1h0Z"/>
      </g>
    </g>
    <path class="b" d="m17.7,11.32c-.19-.25-.29-.39-.28-.66.07-1.78.12-2.74.12-2.93.02-.46-.09-.82-.33-1.07-.39-.41-1.04-.47-1.68-.47H2.95c-.64,0-1.29.06-1.68.47-.24.25-.35.61-.33,1.07.01.19.05,1.15.12,2.93.01.27-.09.41-.28.66C.44,11.77-.02,12.39,0,14.1c.03,1.67.53,2.24.93,2.69.24.27.39.45.41.84.24,6.12.52,13.2.61,15.38l.03.65c.03.87.32,1.86,2.26,1.86h10c1.94,0,2.23-1,2.26-1.86l.03-.65c.09-2.18.37-9.26.61-15.38.01-.39.17-.57.41-.84.41-.45.91-1.01.93-2.69.02-1.71-.44-2.33-.78-2.78Zm-.59,5.07c-.26.3-.54.61-.56,1.21-.24,6.12-.52,13.2-.61,15.38l-.03.65c-.03.71-.17,1.29-1.67,1.29H4.24c-1.5,0-1.64-.58-1.67-1.29l-.03-.65c-.09-2.18-.37-9.26-.61-15.38-.02-.6-.3-.91-.56-1.21-.36-.4-.76-.85-.78-2.31-.02-1.51.36-2.02.66-2.42.21-.27.42-.56.4-1.04-.07-1.8-.12-2.73-.12-2.93,0-.3.04-.51.17-.64.24-.25.76-.28,1.25-.28h12.58c.48,0,1.01.03,1.25.28.13.14.18.35.17.64-.01.19-.05,1.13-.12,2.93-.02.48.19.77.4,1.04.3.4.68.91.66,2.42-.02,1.46-.42,1.91-.78,2.31Z"/>
  </g>
</svg>