<svg id="c" data-name="TEXT" xmlns="http://www.w3.org/2000/svg" viewBox="0 0 35.5 35.5">
  <path d="m25.35,17.61c.05-1.23,1.31-.9,1.34-3.52.03-2.62-1.1-2.47-1.06-3.45.03-.71.05-1.32.07-1.8h-15.9c.02.48.04,1.09.07,1.8.04.98-1.09.83-1.06,3.45.03,2.62,1.29,2.29,1.34,3.52.25,6.23.53,13.46.61,15.49h13.97c.08-2.04.37-9.26.61-15.49Z" fill="#272425"/>
  <g>
    <g>
      <path d="m25.6,9.28h-8.99c-.16,0-.29-.13-.29-.29s.13-.29.29-.29h8.99c.16,0,.29.13.29.29s-.13.29-.29.29Z" fill="#272425"/>
      <path d="m12.7,9.28h-2.89c-.16,0-.29-.13-.29-.29s.13-.29.29-.29h2.89c.16,0,.29.13.29.29s-.13.29-.29.29Z" fill="#272425"/>
      <rect x="10.77" y="32.91" width="14.03" height=".59" fill="#272425"/>
      <g>
        <path d="m12.7,6.48c0,.96,0,.97,0,.98v5.66c0,.54.44.98.98.98s.98-.44.98-.98v-2.81c0,.54.44.98.98.98s.98-.44.98-.98v-3.83" fill="#fff"/>
        <path d="m13.68,14.39c-.7,0-1.27-.57-1.27-1.27v-5.66s0-.12,0-.98c0-.16.13-.29.29-.29h0c.16,0,.29.13.29.29,0,.86,0,.96,0,.98v5.66c0,.38.31.68.68.68s.68-.31.68-.68v-2.81c0-.16.13-.29.29-.29s.29.13.29.29c0,.38.31.68.68.68s.68-.31.68-.68v-3.83c0-.16.13-.29.29-.29s.29.13.29.29v3.83c0,.7-.57,1.27-1.27,1.27-.25,0-.49-.07-.68-.2v1.74c0,.7-.57,1.27-1.27,1.27Z" fill="#272425"/>
      </g>
      <g>
        <path d="m25.78,7.57s-.08,0-.12-.03c-.15-.07-.21-.24-.15-.39.15-.34.23-.7.23-1.08,0-1.44-1.17-2.61-2.61-2.61-.11,0-.23,0-.35.02-.08.01-.17-.01-.23-.07-.06-.06-.1-.14-.1-.22v-.02c0-1.44-1.17-2.61-2.6-2.61-.89,0-1.71.45-2.19,1.19-.04.07-.11.12-.19.13-.08.01-.16,0-.23-.05-.45-.33-.99-.51-1.55-.51-1.44,0-2.61,1.17-2.61,2.61,0,.06,0,.13,0,.21,0,.11-.04.21-.13.27-.09.06-.2.07-.3.02-.27-.14-.56-.2-.87-.2-1.08,0-1.96.88-1.96,1.96,0,.31.07.61.21.89.07.14.02.32-.13.4-.14.07-.32.02-.4-.13-.18-.36-.28-.75-.28-1.16,0-1.4,1.14-2.55,2.55-2.55.24,0,.48.03.7.1.1-1.67,1.49-3,3.19-3,.59,0,1.15.16,1.65.46C17.95.44,18.87-.01,19.86-.01c1.66,0,3.03,1.28,3.18,2.9.03,0,.07,0,.1,0,1.76,0,3.2,1.43,3.2,3.2,0,.46-.1.9-.28,1.32-.05.11-.16.17-.27.17Z" fill="#272425"/>
        <path d="m20.91,4.53c-.07,0-.14-.02-.19-.07-.12-.11-.14-.29-.03-.42.63-.73,1.53-1.14,2.49-1.14.37,0,.74.06,1.09.19.15.05.23.22.18.38-.05.15-.22.23-.38.18-.29-.1-.59-.15-.9-.15-.79,0-1.53.34-2.04.94-.06.07-.14.1-.22.1Z" fill="#272425"/>
      </g>
    </g>
    <path d="m22.75,35.51h-10c-1.94,0-2.23-.99-2.26-1.86l-.03-.65c-.09-2.18-.37-9.26-.61-15.38-.02-.39-.17-.57-.41-.84-.4-.45-.9-1.02-.93-2.69-.02-1.71.44-2.33.78-2.78.19-.25.29-.39.28-.66-.07-1.78-.11-2.74-.12-2.93-.02-.46.09-.82.33-1.07.39-.41,1.04-.47,1.68-.47h1.23c.16,0,.29.13.29.29s-.13.29-.29.29h-1.23c-.49,0-1.01.03-1.25.28-.13.13-.18.34-.17.64,0,.2.05,1.13.12,2.93.02.48-.19.77-.4,1.04-.3.4-.68.91-.66,2.42.02,1.46.42,1.91.78,2.31.26.3.54.61.56,1.21.24,6.12.52,13.2.61,15.38l.03.65c.03.71.17,1.29,1.67,1.29h10c1.5,0,1.64-.58,1.67-1.29l.03-.65c.09-2.18.37-9.26.61-15.38.02-.6.3-.91.56-1.21.36-.4.76-.85.78-2.31.02-1.51-.36-2.02-.66-2.42-.21-.27-.42-.56-.4-1.04.07-1.8.11-2.74.12-2.93.01-.29-.04-.5-.17-.64-.24-.25-.77-.28-1.25-.28h-7.42c-.16,0-.29-.13-.29-.29s.13-.29.29-.29h7.42c.64,0,1.29.06,1.68.47.24.25.35.61.33,1.07,0,.19-.05,1.15-.12,2.93-.01.27.09.41.28.66.34.45.8,1.07.78,2.78-.02,1.68-.52,2.24-.93,2.69-.24.27-.4.45-.41.84-.24,6.12-.52,13.2-.61,15.38l-.03.65c-.03.86-.32,1.86-2.26,1.86Z" fill="#272425"/>
  </g>
</svg>