
<svg id="b" data-name="ELEMENTS" xmlns="http://www.w3.org/2000/svg" viewBox="0 0 35.5 35.5">
  <path d="m35.44,17.75C35.44,7.98,27.52.06,17.75.06S.06,7.98.06,17.75C.06,26.58,6.53,33.9,14.99,35.23v-12.36h-4.49v-5.11h4.49v-3.9c0-4.43,2.64-6.88,6.68-6.88,1.94,0,3.96.35,3.96.35v4.35h-2.23c-2.2,0-2.88,1.36-2.88,2.76v3.32h4.91l-.78,5.11h-4.12v12.36c8.46-1.33,14.93-8.65,14.93-17.48Z"/>
  <path d="m24.64,22.86l.78-5.11h-4.91v-3.32c0-1.4.69-2.76,2.88-2.76h2.23v-4.35s-2.02-.35-3.96-.35c-4.04,0-6.68,2.45-6.68,6.88v3.9h-4.49v5.11h4.49v12.36c.9.14,1.82.22,2.76.22s1.86-.07,2.76-.22v-12.36h4.12Z" fill="#fff"/>
</svg>