<svg id="c" data-name="TEXT" xmlns="http://www.w3.org/2000/svg" viewBox="0 0 35.5 35.5">
  <path d="m30.83.27H4.67C2.33.27.42,2.18.42,4.52v17.16c0,2.34,1.91,4.25,4.25,4.25h14.33v8.26c0,.43.27.82.67.97.12.04.24.07.36.07.3,0,.58-.13.78-.36l7.74-8.93h2.27c2.34,0,4.25-1.91,4.25-4.25V4.52c0-2.34-1.91-4.25-4.25-4.25Zm2.18,21.41c0,1.2-.98,2.18-2.18,2.18,0,0-2.68,0-2.7,0-.31-.01-.62.11-.83.36l-6.23,7.19v-6.51c0-.57-.46-1.04-1.04-1.04H4.67c-1.2,0-2.18-.98-2.18-2.18V4.52c0-1.2.98-2.18,2.18-2.18h26.16c1.2,0,2.18.98,2.18,2.18v17.16Z"/>
  <path d="m29.36,7.11H6.14c-.57,0-1.04.46-1.04,1.04s.46,1.04,1.04,1.04h23.22c.57,0,1.04-.46,1.04-1.04s-.46-1.04-1.04-1.04Z"/>
  <path d="m29.36,12.07H6.14c-.57,0-1.04.46-1.04,1.04s.46,1.04,1.04,1.04h23.22c.57,0,1.04-.46,1.04-1.04s-.46-1.04-1.04-1.04Z"/>
  <path d="m17.13,17.02H6.14c-.57,0-1.04.46-1.04,1.04s.46,1.04,1.04,1.04h10.99c.57,0,1.04-.46,1.04-1.04s-.46-1.04-1.04-1.04Z"/>
</svg>