
<svg id="b" data-name="ELEMENTS" xmlns="http://www.w3.org/2000/svg" viewBox="0 0 35.5 35.5">
  <circle cx="17.75" cy="17.75" r="17.69"/>
  <g>
    <path d="m23.24,11.06c-.67,0-1.22.54-1.22,1.22s.54,1.22,1.22,1.22,1.22-.54,1.22-1.22-.54-1.22-1.22-1.22Z" fill="#fff"/>
    <path d="m17.84,12.62c-2.82,0-5.11,2.29-5.11,5.11s2.29,5.11,5.11,5.11,5.11-2.29,5.11-5.11-2.29-5.11-5.11-5.11Zm0,8.38c-1.8,0-3.27-1.47-3.27-3.27s1.47-3.27,3.27-3.27,3.27,1.47,3.27,3.27-1.47,3.27-3.27,3.27Z" fill="#fff"/>
    <path d="m21.89,28.1h-8.28c-3.44,0-6.23-2.79-6.23-6.23v-8.28c0-3.44,2.79-6.23,6.23-6.23h8.28c3.44,0,6.23,2.79,6.23,6.23v8.28c0,3.44-2.8,6.23-6.23,6.23ZM13.61,9.31c-2.36,0-4.28,1.92-4.28,4.28v8.28c0,2.36,1.92,4.28,4.28,4.28h8.28c2.36,0,4.28-1.92,4.28-4.28v-8.28c0-2.36-1.92-4.28-4.28-4.28h-8.28Z" fill="#fff"/>
  </g>
</svg>