<svg id="a" xmlns="http://www.w3.org/2000/svg" viewBox="0 0 29.48 35.5"><path d="m27.83,29.06c-2.72-3.38-9.32-14.13-10.24-15.64V3.44c2.59.59,3.51-3.25.77-3.44,0,0-7.81,0-7.81,0-2.83.3-1.8,4.03.88,3.44v10.45c-.89,1.48-7.16,11.9-9.78,15.17-2.96,3.59-1.88,6.49,2.77,6.44,0,0,20.63,0,20.63,0,4.66.05,5.74-2.87,2.77-6.44Zm-15.03-14.59c.07-.11.1-.24.1-.38V2.88c.11-.95-1.41-.94-2.24-.91-2.19-.98,7.91-.31,7.7-.49.57.15-.03.61-.34.5-.91-.14-2.08.27-1.91.9-.14,13.38-1.02,9.56,7.81,23.26-7.89-2.59-11.15,5.27-19.68,1.88,3.24-4.67,8.3-13.13,8.55-13.54Zm15.13,18.64c-.69,1.94-21.73.5-23.5.92-4.19.13-3.19-2.29-1.07-4.78,4.31,1.86,8.74.96,12.36-.81,3.85-2.7,11.99-1.32,12.21,4.67Z"/></svg>