
<svg id="a" data-name="Capa 1" xmlns="http://www.w3.org/2000/svg" viewBox="0 0 1395.41 401.55">
  <path d="m344.67,58.81C306.75,20.88,256.33,0,202.7,0S98.65,20.88,60.73,58.81C22.81,96.73,1.92,147.15,1.92,200.78s20.88,104.05,58.81,141.97c37.92,37.92,88.34,58.81,141.97,58.81s104.05-20.88,141.97-58.81c37.92-37.92,58.81-88.34,58.81-141.97s-20.88-104.05-58.81-141.97Zm-141.97,335.5c-106.72,0-193.53-86.82-193.53-193.53S95.98,7.24,202.7,7.24s193.53,86.82,193.53,193.53-86.82,193.53-193.53,193.53Z" fill="#1d1d1b"/>
  <path d="m202.7,11.99C98.43,11.99,13.91,96.51,13.91,200.78s84.52,188.79,188.79,188.79,188.79-84.52,188.79-188.79S306.96,11.99,202.7,11.99Zm31.96,77.12c14.83,0,26.86,12.02,26.86,26.86,0,12.84-9.01,23.56-21.04,26.22-.03,0-.05.01-.07.02-.25.05-.5.1-.76.15-.14.03-.27.05-.41.07-.22.04-.44.08-.66.11-.34.05-.69.09-1.03.13-.14.02-.29.03-.43.04-.28.03-.56.05-.83.06-.13,0-.26.02-.39.02-.4.02-.81.03-1.22.03-14.83,0-26.86-12.02-26.86-26.86,0-.48.01-.96.04-1.43,0-.16.02-.31.04-.47.02-.32.04-.63.08-.95.02-.18.05-.36.07-.54.04-.29.07-.57.12-.85.03-.19.07-.37.1-.56.05-.27.1-.54.16-.81.04-.19.08-.37.13-.56.06-.27.13-.53.2-.79.05-.18.1-.36.15-.54.08-.26.15-.52.24-.78.06-.18.12-.35.18-.52.09-.26.18-.52.28-.77.06-.17.13-.33.2-.5.11-.26.22-.52.33-.78.07-.16.14-.31.21-.46.12-.26.25-.52.38-.78.07-.14.14-.29.22-.43.14-.27.29-.53.44-.79.07-.13.14-.25.22-.38.16-.28.34-.55.51-.82.07-.1.13-.21.2-.31.2-.3.4-.59.61-.88.05-.07.1-.15.16-.22.25-.34.51-.67.78-1,.01-.02.03-.04.04-.05,4.92-6.03,12.41-9.87,20.8-9.87Zm-31.96,185.22h-113.59l56.79-101.7,56.79-101.7,8.83,15.81c-8.79,6.83-14.44,17.49-14.44,29.48,0,20.61,16.71,37.32,37.32,37.32,4.61,0,9.03-.84,13.1-2.37l11.99,21.46,56.79,101.7h-113.59Z"/>
  <g>
    <path d="m464.2,296.5V105.05h30.48c20.24,0,28.38,10,28.38,32.8v38.38c0,11.86-4.19,19.08-11.63,21.17,7.44,1.63,13.96,7.44,13.96,21.17v45.6c0,22.57-10.47,32.34-30.71,32.34h-30.48Zm42.34-158.89c0-10.93-3.26-14.66-11.86-14.66h-12.8v67.7h13.03c8.38,0,11.63-3.72,11.63-12.79v-40.25Zm.7,83.98c0-10.93-2.56-15.35-12.33-15.35h-13.03v72.82h12.8c8.37,0,12.56-4.89,12.56-14.89v-42.57Z" fill="#1d1d1b"/>
    <path d="m607.97,296.5c-3.96-29.31-8.14-58.16-13.49-87.01-1.4.23-2.79.23-4.19.23h-9.54v86.77h-17.68V105.05h29.08c22.1,0,33.27,9.31,33.27,34.43v38.15c0,13.96-4.65,23.26-14.19,28.15,6.28,30.24,11.4,61.18,16.05,90.73h-19.31Zm-.47-154.7c0-13.49-3.02-18.84-15.35-18.84h-11.4v70.72h11.63c10.93,0,15.12-4.88,15.12-15.82v-36.06Z" fill="#1d1d1b"/>
    <path d="m659.61,135.52c0-21.17,10-32.57,30.01-32.57s30.24,11.4,30.24,32.57v130.51c0,21.17-9.77,32.57-30.24,32.57s-30.01-11.4-30.01-32.57v-130.51Zm42.57,0c0-9.54-3.96-14.66-12.56-14.66-8.14,0-12.33,5.12-12.33,14.66v130.51c0,10,4.19,15.12,12.33,15.12,8.61,0,12.56-5.12,12.56-15.12v-130.51Z" fill="#1d1d1b"/>
    <path d="m771.97,296.5V122.96h-21.4v-17.91h60.25v17.91h-21.4v173.55h-17.45Z" fill="#1d1d1b"/>
    <path d="m887.59,296.5v-88.63h-24.66v88.63h-17.68V105.05h17.68v85.38h24.66v-85.38h17.68v191.46h-17.68Z" fill="#1d1d1b"/>
    <path d="m945.74,296.5V105.05h50.71v17.91h-33.03v67.23h23.26v17.68h-23.26v71.19h34.2v17.45h-51.88Z" fill="#1d1d1b"/>
    <path d="m1079.04,296.5c-3.96-29.31-8.14-58.16-13.49-87.01-1.4.23-2.79.23-4.19.23h-9.54v86.77h-17.68V105.05h29.08c22.1,0,33.27,9.31,33.27,34.43v38.15c0,13.96-4.65,23.26-14.19,28.15,6.28,30.24,11.4,61.18,16.05,90.73h-19.31Zm-.47-154.7c0-13.49-3.02-18.84-15.35-18.84h-11.4v70.72h11.63c10.93,0,15.12-4.88,15.12-15.82v-36.06Z" fill="#1d1d1b"/>
    <path d="m1176.74,296.5v-88.63h-24.66v88.63h-17.68V105.05h17.68v85.38h24.66v-85.38h17.68v191.46h-17.68Z" fill="#1d1d1b"/>
    <path d="m1233.5,135.52c0-21.17,10-32.57,30.01-32.57s30.24,11.4,30.24,32.57v130.51c0,21.17-9.77,32.57-30.24,32.57s-30.01-11.4-30.01-32.57v-130.51Zm42.57,0c0-9.54-3.96-14.66-12.56-14.66-8.14,0-12.33,5.12-12.33,14.66v130.51c0,10,4.19,15.12,12.33,15.12,8.61,0,12.56-5.12,12.56-15.12v-130.51Z" fill="#1d1d1b"/>
    <path d="m1332.83,296.5V105.05h29.78c22.33,0,32.8,10.93,32.8,34.66v31.41c0,23.96-10.47,34.43-32.57,34.43h-12.33v90.96h-17.68Zm45.13-156.8c0-11.4-4.19-16.75-15.35-16.75h-12.1v65.37h12.33c10.24,0,15.12-4.88,15.12-16.75v-31.87Z" fill="#1d1d1b"/>
  </g>
</svg>