<svg id="a" xmlns="http://www.w3.org/2000/svg" viewBox="0 0 25.99 35.5"><path d="m12.22,22.14c-1.61-.16-6.81-8.16-3.93-10.97,2.8-2.9,6.47-2.73,8.49-.38,3.42,4.54-2.73,11.13-4.55,11.35Zm.88-12.07c-7.52-.04-4.21,8.53-.83,10.98.84-.53,3.28-2.28,4.25-5.16.76-1.77-.11-6.22-3.42-5.82Z"/><path d="m12.6,29.65c-2.93-1.83-4.56-4.67-4.69-6.9.06-2.83,1.3-4.69,2.19-4.18.19.19.19.5,0,.69-2.26,2.07-1.03,6.92,2.53,9.28,2.25-1.14,5.64-6.28,2.37-9.32-.17-.21-.14-.52.07-.69,1.9.02,2.49,3.79,2.23,5.11-.7,3.66-4.28,5.9-4.7,6Z"/><path d="m5.49,18.27c-1.99-.2-3.83-.24-3.25-1.37.83-.79.73-1.74.61-2.94-1.04-7.16,7.58-7.53,9.58-4.72.59,2.89-2.98-3.23-7.26.42-2.85,2.18-.3,4.84-1.75,7.35,1.11.29,3.36.66,4.84-.6.21-.17.51-.15.69.06.33,1.48-2.52,1.78-3.46,1.81Z"/><path d="m20.06,18.27c-.94-.03-3.79-.33-3.46-1.81.18-.21.48-.23.69-.06,1.48,1.26,3.73.89,4.84.6-1.45-2.51,1.09-5.16-1.75-7.35-4.3-3.67-7.83,2.48-7.26-.42,2.02-2.81,10.62-2.44,9.58,4.72-.12,1.21-.22,2.16.6,2.94.59,1.14-1.26,1.17-3.25,1.37Z"/><path d="m3.97,28.27c-.32,0-.58-.34-.46-.65.5-1.43.37-3.15-.41-5.41-1.03-3.32.72-5.52,1.52-4.86.18.2.16.51-.03.69-2.06,1.19.91,7.2.07,9.13,1.17-.23,3.44-.76,4.54-1.67.21-.17.52-.15.69.06.31,1.96-6.1,2.68-5.9,2.71Z"/><path d="m21.74,28.27c-.03-.06-6.22-.79-5.9-2.71.17-.21.48-.24.69-.06,1.1.92,3.36,1.45,4.54,1.67-.85-1.94,2.12-7.92.07-9.13-.2-.18-.22-.49-.04-.69.79-.67,2.55,1.55,1.52,4.86-1.39,2.53.15,6.12-.87,6.06Z"/><path d="m12.64,35.5c-1.5-.94-2.15-2.16-3.87-3.64-2.16-1.94-3.01-6.71-1.3-4.83-.26,1.98,3.46,5.79,5.16,7.29.95-1.14,6.33-4.44,5.6-7.2-.02-.27.19-.5.46-.52,1.02.05.71,3.17-1.5,5.09-3.54,2.68-3.76,3.54-4.55,3.81Z"/><path d="m13.08,10.07c-1.02.48-.28-8.33-.49-8.58,0-.27.22-.49.49-.49,1.02-.48.28,8.33.49,8.58,0,.27-.22.49-.49.49Z"/><path d="m.59,8.04c-.96-.09-.82-4.26.96-6.64,3.63-4.05,10.03,1.87,9.96,2.84,0,1.35-2.34,1.98-3.1,2-3.6-.91-5.73-1.89-7.38,1.51-.08.18-.26.3-.45.3ZM4.71,1.05c-2.65-.21-3.62,2.82-3.65,4.88,3.27-4.05,6.28,1.08,9.39-1.56-.61-.9-2.54-3.32-5.74-3.32Z"/><path d="m25.4,8.04c-.19,0-.37-.12-.45-.3h0c-1.59-3.37-3.84-2.43-7.38-1.51-.76-.01-3.09-.65-3.1-2-.04-.98,6.31-6.88,9.96-2.84,1.79,2.39,1.92,6.54.96,6.64Zm-3.8-3.75c1.55,0,2.64.84,3.32,1.64.04-7.28-7.5-5.07-9.39-1.56,2.43,2.03,3.5-.1,6.06-.08Z"/></svg>