<svg id="a" xmlns="http://www.w3.org/2000/svg" viewBox="0 0 30.38 35.3"><defs><style>.b{fill:#849a31;}.c{fill:#fff;}</style></defs><path class="c" d="m22.08,22.72l.78-5.11h-4.91v-3.32c0-1.4.69-2.76,2.88-2.76h2.23v-4.35s-2.02-.35-3.96-.35c-4.04,0-6.68,2.45-6.68,6.88v3.9h-4.49v5.11h4.49v12.36c.9.14,1.82.22,2.76.22s1.86-.07,2.76-.22v-12.36h4.14Z"/><path class="b" d="m24.39,2.38c-.65-.39-1.38-.72-2.16-.98.17-.46.18-1.12-.23-1.33-.07-.04-.15-.04-.23-.05-.17-.01-.34-.02-.49.05-.25.12-.26.51-.28.85-.69-.5-2.45-.72-2.98-.8-2.5-.35-5.06.13-7.45.84C7.06,1.99,3.65,3.53,0,3.79c2.14.88,4.37,1.58,6.65,1.95-.2.2-.4.39-.6.59C.53,11.86.78,19.59,2.3,26.78c.41,1.97.9,3.98,2.03,5.65,1.13,1.67,3.04,2.95,5.05,2.77,2.3-.21,4-2.15,5.64-3.77,2.91-2.87,6.38-5.12,9.37-7.91,2.99-2.79,5.59-6.34,5.96-10.41.4-4.46-2.25-8.49-5.95-10.73Z"/></svg>