<?xml version="1.0" encoding="UTF-8"?><svg id="a" xmlns="http://www.w3.org/2000/svg" viewBox="0 0 25.75 34.29"><path d="m25.74,17.19c-.1-2.78-.92-5.39-2.13-7.89-.99-2.04-2.08-3.44-4.37-3.52.32-1.89.25-3.95-.14-5.48-.13-.51-.91-.29-.78.22.58,2.26.38,5.83-.78,7.94-3.58-1.79-8.19-.24-10.42,3.01-1.64,2.39-2.19,5.33-2.73,8.12-.32,1.66-.64,3.32-1.38,4.86-.62,1.28-1.5,2.4-2.18,3.63-.79,1.44-1.39,3.32.08,4.53,1.83,1.52,4.54,1.86,6.81,1.6,2.81-.32,5.43-1.41,7.84-2.83,1.77-1.04,3.58-2.23,4.79-3.91-.11,1.36-.28,2.69-.5,3.92-.07.4.36.67.68.39,3.93-3.37,5.4-9.66,5.22-14.6Zm-5.31,8.53c-1.74,3.96-7.5,6.68-11.51,7.48-2.04.41-5.39.65-7.07-.95-2.24-2.13.45-4.81,1.54-6.79,1.94-3.51,1.79-7.68,3.27-11.36,1.72-4.25,6.74-7.35,11.06-4.63-.06,3.2,1.56,6.41,2.23,9.53.44,2.06.58,4.39.5,6.69,0,0,0,.01-.01.02Zm4.49-6.63c-.15,3.75-1.43,8.34-4.09,11.25.42-2.97.44-6.14.24-9.08-.32-4.74-4.16-9.95-1.89-14.67,2.86.13,3.84,3.11,4.71,5.48.84,2.29,1.13,4.58,1.03,7.02Z"/><path d="m11.27,10.8c-2.32,1.29-3.75,3.64-3.85,6.28-.02.52.79.52.81,0,.09-2.36,1.39-4.44,3.45-5.58.46-.25.05-.95-.41-.7Z"/><path d="m12.91,10.02c-.52,0-.52.81,0,.81s.52-.81,0-.81Z"/></svg>