<svg id="a" xmlns="http://www.w3.org/2000/svg" viewBox="0 0 35.44 27.89"><path d="m1.67,9.99c-2.69-1.34-2.04-5.15,1.36-4.17,7.55,3.84,22.49,12.37,29.29,17.67.41.32,1.84,1.36.55,1.32-1.88-.75-1.96-1.17-4.24-2.48-7.63-4.05-16.77-10.01-24.03-14.49-1.9-1.63-5.26-.77-2.63.92.71.02.25.25.21.72-.22.23-.39.22-.52.5Z"/><path d="m6.79,5.97c-2.61-1.59-3.03-2.02-4.43-2.63-.43-.51-.2-1.33.45-.92,7.61,4.69,21.22,10.26,28.25,16.32,1.99,1.66,2.79,3.2,4.19,3.26.36.11.09.9-.07.85-.23-.07-.25-.12-.58-.26-3.52-1.41-7.6-5.5-11.24-7.31-4.59-2.92-12.18-6.62-16.58-9.32Z"/><path d="m4.06.72c4.19-2.06,13.3,11.45,17.74,15.41,2.47,2.35,11.63,13.75,11.93,11.46-5.65-6.87-11.71-13.17-18.33-20.17C11.53,3.81,8.92-.95,4.24.17c-.36.08-.54.29-.18.56Z"/></svg>