<svg id="a" xmlns="http://www.w3.org/2000/svg" viewBox="0 0 35.5 26.21"><path d="m35.43,21.87c-1.81-3.36-4.81-6.21-7.56-8.81,4.24-.59,4.77-1.39.4-3.33-1.17-.68-2.4-1.31-3.72-1.55,1.52-1.21,3.65-7.12,3.09-7.77-2.93,2.13-8.01,1.74-8.58,6.41-1.1-3.36-4.23-6.12-7.84-5.99-.18,1.99.31,4.03,1.34,5.73C8.3,5.2,4.56,3.36,1.56,0-.73,2.59,7.78,6,10.73,7.07,6.76,6.3,3.23,5.01.08,2.37c-1.16,4.54,11.41,5.67,14.41,6.46-3.23.2-6.34,2.15-7.81,5.05,1.84,1.86,4.87,2.14,7.21,1.08-1.01,2.34-.43,5.05.17,7.53,1-.67,4.57-3.86,4.99-5.49,1.42,2.81,5.27,2.32,7.14,4.57,1.17-.4.04-6.83-.93-7.87.02,0,.05-.01.07-.02,3.82,3.17,6.55,7.66,7.53,12.53,3.26-1.82-4.82-10.93-6.43-12.8.13-.03.26-.06.39-.1,3.64,2.59,6.5,6.28,8.01,10.49.61-.39.78-1.24.59-1.94Z"/></svg>